<svg width="15" height="15" viewBox="0 0 15 15" fill="none" xmlns="http://www.w3.org/2000/svg">
<path d="M14.5001 13.3744L10.7241 9.59832C11.6314 8.509 12.0839 7.1118 11.9873 5.69738C11.8908 4.28295 11.2526 2.96021 10.2057 2.0043C9.15867 1.0484 7.78347 0.532936 6.36612 0.565144C4.94877 0.597352 3.5984 1.17475 2.59593 2.17723C1.59345 3.1797 1.01605 4.53007 0.983845 5.94742C0.951637 7.36477 1.4671 8.73997 2.423 9.78695C3.37891 10.8339 4.70165 11.4721 6.11608 11.5686C7.5305 11.6652 8.9277 11.2127 10.017 10.3054L13.7931 14.0814L14.5001 13.3744ZM2.00012 6.08142C2.00012 5.1914 2.26404 4.32137 2.75851 3.58135C3.25297 2.84133 3.95578 2.26455 4.77804 1.92396C5.60031 1.58336 6.50511 1.49425 7.37802 1.66788C8.25094 1.84152 9.05276 2.2701 9.6821 2.89944C10.3114 3.52877 10.74 4.3306 10.9137 5.20351C11.0873 6.07643 10.9982 6.98123 10.6576 7.80349C10.317 8.62576 9.7402 9.32856 9.00018 9.82303C8.26016 10.3175 7.39013 10.5814 6.50012 10.5814C5.30705 10.5801 4.16323 10.1056 3.3196 9.26194C2.47597 8.41831 2.00144 7.27449 2.00012 6.08142Z" fill="#141414"/>
</svg>
