<svg width="186" height="15" viewBox="0 0 186 15" fill="none" xmlns="http://www.w3.org/2000/svg">
<path fill-rule="evenodd" clip-rule="evenodd" d="M3.10273 0.615981C1.11393 1.34378 0.118627 3.33648 0.704227 5.41818C1.10283 6.83518 1.82293 7.41398 4.07193 8.12518C7.29143 9.14328 7.86042 9.54768 7.86042 10.8182C7.86042 12.086 6.92833 12.8382 5.35823 12.837C4.17893 12.8362 3.39263 12.3687 3.08323 11.4843L2.85573 10.8343H1.63563H0.415527L0.524128 11.3952C0.940828 13.5493 2.81623 14.853 5.46963 14.8331C8.59363 14.8098 10.7067 12.3681 9.98853 9.61118C9.59173 8.08838 8.60172 7.31748 6.15522 6.62628C4.21712 6.07858 3.31313 5.60258 2.99173 4.96038C2.61433 4.20578 2.80673 3.32138 3.47473 2.74038C3.91243 2.35968 4.19442 2.27428 5.01062 2.27488C6.20582 2.27558 6.99222 2.70158 7.32312 3.52748C7.54682 4.08538 7.57203 4.09538 8.76283 4.09538C9.42963 4.09538 9.97443 4.03398 9.97393 3.95878C9.96613 2.86768 8.95933 1.40008 7.78903 0.773682C6.74343 0.213982 4.41533 0.135681 3.10273 0.615981ZM71.0909 0.620181C70.5419 0.801581 69.8179 1.12558 69.4819 1.34018C68.5569 1.93118 67.4419 3.27398 66.9189 4.42778C66.4959 5.35958 66.4499 5.66808 66.4499 7.56028C66.4499 9.56018 66.4769 9.71558 67.0229 10.8608C67.7169 12.3181 68.8119 13.4065 70.3129 14.1325C73.5979 15.7214 77.9009 14.4217 79.3979 11.3881L79.7609 10.6521L78.3919 10.6527C77.0779 10.6532 77.0089 10.6743 76.6809 11.181C75.9129 12.3651 74.2649 13.0083 72.6029 12.7728C69.8989 12.3896 68.1279 9.56938 68.6749 6.51448C69.1439 3.88868 70.6459 2.46238 73.1039 2.30778C74.1289 2.24318 74.4299 2.30138 75.2719 2.72728C75.8729 3.03098 76.3989 3.45958 76.6359 3.83838C77.0209 4.45178 77.0299 4.45508 78.3929 4.45748L79.7629 4.45968L79.4699 3.86778C78.0149 0.928381 74.3989 -0.473319 71.0909 0.620181ZM15.2612 7.55588V14.659H19.0497H22.8382V13.7483V12.8377H20.1951H17.5519V10.6521V8.46658H19.9308H22.3096V7.46478V6.46308H19.9308H17.5519V4.36858V2.27408H20.1951H22.8382V1.36348V0.452783H19.0497H15.2612V7.55588ZM28.1245 7.53878V14.659H29.2699H30.4152V11.836V9.01288H31.2841H32.153L33.707 11.8341L35.261 14.6555L36.6205 14.6572L37.9799 14.659L36.4044 11.9534C35.538 10.4654 34.7819 9.12088 34.7243 8.96558C34.6476 8.75908 34.7713 8.64888 35.1856 8.55468C35.497 8.48398 36.0929 8.10118 36.51 7.70378C38.5158 5.79288 38.105 2.45608 35.6961 1.09028C34.7368 0.546381 34.7171 0.543481 31.4285 0.481181L28.1245 0.418782V7.53878ZM42.4599 1.59108C42.6859 2.21728 43.8479 5.41348 45.0399 8.69418L47.2089 14.659L48.5479 14.6557L49.8869 14.6524L52.4549 7.55258L55.0239 0.452783H53.8449H52.6659L51.5159 3.77668C50.8829 5.60488 49.9799 8.22708 49.5089 9.60398C49.0379 10.9809 48.6049 12.1079 48.5459 12.1083C48.4879 12.1088 47.5409 9.48648 46.4419 6.28098L44.4439 0.452783H43.2459H42.0479L42.4599 1.59108ZM59.3139 7.55588V14.659H60.4589H61.6039V7.55588V0.452783H60.4589H59.3139V7.55588ZM84.8639 7.55588V14.659H88.6529H92.4409V13.7483V12.8377H89.7979H87.1549V10.6521V8.46658H89.5339H91.9129V7.46478V6.46308H89.5339H87.1549V4.36858V2.27408H89.7979H92.4409V1.36348V0.452783H88.6529H84.8639V7.55588ZM97.7269 7.55588V14.659H98.8699H100.012L100.059 9.90298L100.106 5.14698L102.133 9.90588L104.159 14.6648L105.004 14.6164L105.85 14.5679L107.83 9.97768C108.92 7.45298 109.867 5.32878 109.936 5.25738C110.006 5.18598 110.062 7.27208 110.062 9.89318V14.659H111.207H112.353V7.54788V0.436782L111.081 0.490281L109.808 0.543881L107.437 6.05788C106.133 9.09048 105.013 11.5083 104.948 11.4307C104.883 11.3531 103.894 9.11768 102.75 6.46308C101.607 3.80858 100.55 1.37038 100.4 1.04468C100.133 0.462282 100.11 0.452783 98.9279 0.452783H97.7269V7.55588ZM121.673 0.953681C121.57 1.22918 120.507 4.28208 119.311 7.73798C118.115 11.194 117.081 14.1689 117.013 14.3492C116.901 14.6477 116.995 14.6719 118.08 14.6224L119.27 14.5679L119.754 13.2019L120.238 11.836L123.146 11.7861L126.055 11.7363L126.547 13.1976L127.039 14.659H128.253C128.92 14.659 129.43 14.5976 129.385 14.5224C129.319 14.4113 125.73 4.13478 124.741 1.22688L124.478 0.452783H123.169C121.903 0.452783 121.853 0.469581 121.673 0.953681ZM134.027 7.53878V14.659H135.172H136.317V11.836V9.01288H137.175H138.032L139.598 11.8341L141.163 14.6553L142.513 14.6572L143.864 14.659L142.206 11.7904C141.295 10.2126 140.548 8.86688 140.548 8.79968C140.547 8.73258 140.797 8.62058 141.104 8.55108C141.423 8.47858 142.017 8.05638 142.495 7.56208C143.185 6.84958 143.366 6.51778 143.54 5.65168C143.932 3.70018 143.212 2.01928 141.585 1.08768C140.639 0.546582 140.618 0.543481 137.331 0.481181L134.027 0.418782V7.53878ZM149.004 7.55588V14.659H150.146H151.287L151.335 11.5435L151.383 8.42808L153.99 11.5435L156.597 14.659H157.999C158.77 14.659 159.401 14.6218 159.401 14.5763C159.401 14.5308 158.092 12.9686 156.493 11.1047C154.894 9.24078 153.586 7.65738 153.586 7.58558C153.586 7.48558 157.21 3.07348 159.182 0.771481C159.44 0.470981 159.375 0.452783 158.04 0.452783H156.625L154.004 3.64028L151.383 6.82758L151.335 3.64028L151.287 0.452783H150.146H149.004V7.55588ZM163.982 7.55588V14.659H167.859H171.736V13.7483V12.8377H169.004H166.273V10.6521V8.46658H168.652H171.031V7.46478V6.46308H168.652H166.273V4.36858V2.27408H169.004H171.736V1.36348V0.452783H167.859H163.982V7.55588ZM176.141 1.36348V2.27408H177.991H179.841V8.46658V14.659H180.987H182.132V8.46658V2.27408H183.982H185.832V1.36348V0.452783H180.987H176.141V1.36348ZM34.2919 2.59318C35.1347 3.02828 35.6006 4.03438 35.4476 5.08878C35.2256 6.61918 34.2318 7.18868 31.7809 7.19048L30.4152 7.19158V4.73288V2.27408L32.0452 2.27448C33.2439 2.27468 33.8383 2.35898 34.2919 2.59318ZM140.495 2.75328C141.532 3.55388 141.671 5.19108 140.792 6.27018C140.238 6.95118 139.433 7.18928 137.683 7.19048L136.317 7.19158V4.71228V2.23278L138.16 2.30328C139.685 2.36168 140.088 2.43928 140.495 2.75328ZM124.329 6.62588C124.914 8.35908 125.392 9.80998 125.392 9.85038C125.392 9.89058 124.401 9.92358 123.19 9.92358C121.7 9.92358 120.987 9.85858 120.987 9.72228C120.987 9.56828 122.145 6.06368 123.021 3.56848C123.07 3.42898 123.145 3.35068 123.187 3.39478C123.23 3.43878 123.744 4.89278 124.329 6.62588Z" fill="white"/>
</svg>
